<mxfile host="app.diagrams.net" modified="2023-01-06T07:31:32.947Z" agent="5.0 (Windows NT 10.0; Win64; x64) AppleWebKit/537.36 (KHTML, like Gecko) Chrome/108.0.0.0 Safari/537.36" etag="_1YGZq8VyL34cdnyHpAb" version="20.7.4" type="github">
  <diagram name="Page-1" id="2c4490ee-f0b8-94ab-5012-d5dc3445f7a3">
    <mxGraphModel dx="1050" dy="589" grid="0" gridSize="10" guides="1" tooltips="1" connect="0" arrows="1" fold="1" page="1" pageScale="1.5" pageWidth="1169" pageHeight="826" background="none" math="0" shadow="0">
      <root>
        <mxCell id="0" style=";html=1;" />
        <mxCell id="1" style=";html=1;" parent="0" />
        <mxCell id="7a8b956e7d50b54d-114" value="Progress" style="strokeWidth=1;fontStyle=1;html=1;strokeColor=#000000;" parent="1" vertex="1">
          <mxGeometry x="760" y="439" width="120" height="41" as="geometry" />
        </mxCell>
        <mxCell id="7a8b956e7d50b54d-119" value="July" style="strokeWidth=1;fontStyle=1;html=1;strokeColor=#000000;" parent="1" vertex="1">
          <mxGeometry x="880" y="439" width="120" height="20" as="geometry" />
        </mxCell>
        <mxCell id="7a8b956e7d50b54d-124" value="Aug" style="strokeWidth=1;fontStyle=1;html=1;strokeColor=#000000;" parent="1" vertex="1">
          <mxGeometry x="1000" y="439" width="120" height="20" as="geometry" />
        </mxCell>
        <mxCell id="7a8b956e7d50b54d-129" value="Sept" style="strokeWidth=1;fontStyle=1;html=1;strokeColor=#000000;" parent="1" vertex="1">
          <mxGeometry x="1120" y="439" width="120" height="20" as="geometry" />
        </mxCell>
        <mxCell id="7a8b956e7d50b54d-134" value="Oct" style="strokeWidth=1;fontStyle=1;html=1;strokeColor=#000000;" parent="1" vertex="1">
          <mxGeometry x="1240" y="439" width="120" height="20" as="geometry" />
        </mxCell>
        <mxCell id="7a8b956e7d50b54d-139" value="Nov" style="strokeWidth=1;fontStyle=1;html=1;strokeColor=#000000;" parent="1" vertex="1">
          <mxGeometry x="1360" y="439" width="120" height="20" as="geometry" />
        </mxCell>
        <mxCell id="7a8b956e7d50b54d-157" value="Dec" style="strokeWidth=1;fontStyle=1;html=1;strokeColor=#000000;" parent="1" vertex="1">
          <mxGeometry x="1480" y="439" width="120" height="20" as="geometry" />
        </mxCell>
        <mxCell id="7a8b956e7d50b54d-241" value="Create SRS" style="align=left;strokeColor=#000000;html=1;" parent="1" vertex="1">
          <mxGeometry x="760" y="479" width="120" height="20" as="geometry" />
        </mxCell>
        <mxCell id="7a8b956e7d50b54d-242" value="Create User Guide" style="align=left;strokeColor=#000000;html=1;" parent="1" vertex="1">
          <mxGeometry x="760" y="499" width="120" height="20" as="geometry" />
        </mxCell>
        <mxCell id="7a8b956e7d50b54d-243" value="Design Poster" style="align=left;strokeColor=#000000;html=1;" parent="1" vertex="1">
          <mxGeometry x="760" y="519" width="120" height="20" as="geometry" />
        </mxCell>
        <mxCell id="7a8b956e7d50b54d-244" value="Create Flowchart" style="align=left;strokeColor=#000000;html=1;" parent="1" vertex="1">
          <mxGeometry x="760" y="539" width="120" height="20" as="geometry" />
        </mxCell>
        <mxCell id="7a8b956e7d50b54d-245" value="Create ERD" style="align=left;strokeColor=#000000;html=1;" parent="1" vertex="1">
          <mxGeometry x="760" y="559" width="120" height="20" as="geometry" />
        </mxCell>
        <mxCell id="7a8b956e7d50b54d-246" value="Create Mockup" style="align=left;strokeColor=#000000;html=1;" parent="1" vertex="1">
          <mxGeometry x="760" y="579" width="120" height="20" as="geometry" />
        </mxCell>
        <mxCell id="7a8b956e7d50b54d-247" value="Create Web Apps" style="align=left;strokeColor=#000000;html=1;" parent="1" vertex="1">
          <mxGeometry x="760" y="599" width="120" height="20" as="geometry" />
        </mxCell>
        <mxCell id="7a8b956e7d50b54d-248" value="Testing and Debug" style="align=left;strokeColor=#000000;html=1;" parent="1" vertex="1">
          <mxGeometry x="760" y="619" width="120" height="20" as="geometry" />
        </mxCell>
        <mxCell id="7a8b956e7d50b54d-249" value="Fix Bugs" style="align=left;strokeColor=#000000;html=1;" parent="1" vertex="1">
          <mxGeometry x="760" y="639" width="120" height="20" as="geometry" />
        </mxCell>
        <mxCell id="7a8b956e7d50b54d-257" value="" style="align=left;strokeColor=#000000;html=1;" parent="1" vertex="1">
          <mxGeometry x="880" y="479" width="120" height="20" as="geometry" />
        </mxCell>
        <mxCell id="7a8b956e7d50b54d-258" value="" style="align=left;strokeColor=#000000;html=1;" parent="1" vertex="1">
          <mxGeometry x="880" y="499" width="120" height="20" as="geometry" />
        </mxCell>
        <mxCell id="7a8b956e7d50b54d-259" value="" style="align=left;strokeColor=#000000;html=1;" parent="1" vertex="1">
          <mxGeometry x="880" y="519" width="120" height="20" as="geometry" />
        </mxCell>
        <mxCell id="7a8b956e7d50b54d-260" value="" style="align=left;strokeColor=#000000;html=1;" parent="1" vertex="1">
          <mxGeometry x="880" y="539" width="120" height="20" as="geometry" />
        </mxCell>
        <mxCell id="7a8b956e7d50b54d-261" value="" style="align=left;strokeColor=#000000;html=1;" parent="1" vertex="1">
          <mxGeometry x="880" y="559" width="120" height="20" as="geometry" />
        </mxCell>
        <mxCell id="7a8b956e7d50b54d-262" value="" style="align=left;strokeColor=#000000;html=1;" parent="1" vertex="1">
          <mxGeometry x="880" y="579" width="120" height="20" as="geometry" />
        </mxCell>
        <mxCell id="7a8b956e7d50b54d-263" value="" style="align=left;strokeColor=#000000;html=1;" parent="1" vertex="1">
          <mxGeometry x="880" y="599" width="120" height="20" as="geometry" />
        </mxCell>
        <mxCell id="7a8b956e7d50b54d-264" value="" style="align=left;strokeColor=#000000;html=1;" parent="1" vertex="1">
          <mxGeometry x="880" y="619" width="120" height="20" as="geometry" />
        </mxCell>
        <mxCell id="7a8b956e7d50b54d-265" value="" style="align=left;strokeColor=#000000;html=1;" parent="1" vertex="1">
          <mxGeometry x="880" y="639" width="120" height="20" as="geometry" />
        </mxCell>
        <mxCell id="7a8b956e7d50b54d-273" value="" style="align=left;strokeColor=#000000;html=1;" parent="1" vertex="1">
          <mxGeometry x="1000" y="479" width="120" height="20" as="geometry" />
        </mxCell>
        <mxCell id="7a8b956e7d50b54d-274" value="" style="align=left;strokeColor=#000000;html=1;" parent="1" vertex="1">
          <mxGeometry x="1000" y="499" width="120" height="20" as="geometry" />
        </mxCell>
        <mxCell id="7a8b956e7d50b54d-275" value="" style="align=left;strokeColor=#000000;html=1;" parent="1" vertex="1">
          <mxGeometry x="1000" y="519" width="120" height="20" as="geometry" />
        </mxCell>
        <mxCell id="7a8b956e7d50b54d-276" value="" style="align=left;strokeColor=#000000;html=1;" parent="1" vertex="1">
          <mxGeometry x="1000" y="539" width="120" height="20" as="geometry" />
        </mxCell>
        <mxCell id="7a8b956e7d50b54d-277" value="" style="align=left;strokeColor=#000000;html=1;" parent="1" vertex="1">
          <mxGeometry x="1000" y="559" width="120" height="20" as="geometry" />
        </mxCell>
        <mxCell id="7a8b956e7d50b54d-278" value="" style="align=left;strokeColor=#000000;html=1;" parent="1" vertex="1">
          <mxGeometry x="1000" y="579" width="120" height="20" as="geometry" />
        </mxCell>
        <mxCell id="7a8b956e7d50b54d-279" value="" style="align=left;strokeColor=#000000;html=1;" parent="1" vertex="1">
          <mxGeometry x="1000" y="599" width="120" height="20" as="geometry" />
        </mxCell>
        <mxCell id="7a8b956e7d50b54d-280" value="" style="align=left;strokeColor=#000000;html=1;" parent="1" vertex="1">
          <mxGeometry x="1000" y="619" width="120" height="20" as="geometry" />
        </mxCell>
        <mxCell id="7a8b956e7d50b54d-281" value="" style="align=left;strokeColor=#000000;html=1;" parent="1" vertex="1">
          <mxGeometry x="1000" y="639" width="120" height="20" as="geometry" />
        </mxCell>
        <mxCell id="7a8b956e7d50b54d-289" value="" style="align=left;strokeColor=#000000;html=1;" parent="1" vertex="1">
          <mxGeometry x="1120" y="479" width="120" height="20" as="geometry" />
        </mxCell>
        <mxCell id="7a8b956e7d50b54d-290" value="" style="align=left;strokeColor=#000000;html=1;" parent="1" vertex="1">
          <mxGeometry x="1120" y="499" width="120" height="20" as="geometry" />
        </mxCell>
        <mxCell id="7a8b956e7d50b54d-291" value="" style="align=left;strokeColor=#000000;html=1;" parent="1" vertex="1">
          <mxGeometry x="1120" y="519" width="120" height="20" as="geometry" />
        </mxCell>
        <mxCell id="7a8b956e7d50b54d-292" value="" style="align=left;strokeColor=#000000;html=1;" parent="1" vertex="1">
          <mxGeometry x="1120" y="539" width="120" height="20" as="geometry" />
        </mxCell>
        <mxCell id="7a8b956e7d50b54d-293" value="" style="align=left;strokeColor=#000000;html=1;" parent="1" vertex="1">
          <mxGeometry x="1120" y="559" width="120" height="20" as="geometry" />
        </mxCell>
        <mxCell id="7a8b956e7d50b54d-294" value="" style="align=left;strokeColor=#000000;html=1;" parent="1" vertex="1">
          <mxGeometry x="1120" y="579" width="120" height="20" as="geometry" />
        </mxCell>
        <mxCell id="7a8b956e7d50b54d-295" value="" style="align=left;strokeColor=#000000;html=1;" parent="1" vertex="1">
          <mxGeometry x="1120" y="599" width="120" height="20" as="geometry" />
        </mxCell>
        <mxCell id="7a8b956e7d50b54d-296" value="" style="align=left;strokeColor=#000000;html=1;" parent="1" vertex="1">
          <mxGeometry x="1120" y="619" width="120" height="20" as="geometry" />
        </mxCell>
        <mxCell id="7a8b956e7d50b54d-297" value="" style="align=left;strokeColor=#000000;html=1;" parent="1" vertex="1">
          <mxGeometry x="1120" y="639" width="120" height="20" as="geometry" />
        </mxCell>
        <mxCell id="7a8b956e7d50b54d-305" value="" style="align=left;strokeColor=#000000;html=1;" parent="1" vertex="1">
          <mxGeometry x="1240" y="479" width="120" height="20" as="geometry" />
        </mxCell>
        <mxCell id="7a8b956e7d50b54d-306" value="" style="align=left;strokeColor=#000000;html=1;" parent="1" vertex="1">
          <mxGeometry x="1240" y="499" width="120" height="20" as="geometry" />
        </mxCell>
        <mxCell id="7a8b956e7d50b54d-307" value="" style="align=left;strokeColor=#000000;html=1;" parent="1" vertex="1">
          <mxGeometry x="1240" y="519" width="120" height="20" as="geometry" />
        </mxCell>
        <mxCell id="7a8b956e7d50b54d-308" value="" style="align=left;strokeColor=#000000;html=1;" parent="1" vertex="1">
          <mxGeometry x="1240" y="539" width="120" height="20" as="geometry" />
        </mxCell>
        <mxCell id="7a8b956e7d50b54d-309" value="" style="align=left;strokeColor=#000000;html=1;" parent="1" vertex="1">
          <mxGeometry x="1240" y="559" width="120" height="20" as="geometry" />
        </mxCell>
        <mxCell id="7a8b956e7d50b54d-310" value="" style="align=left;strokeColor=#000000;html=1;" parent="1" vertex="1">
          <mxGeometry x="1240" y="579" width="120" height="20" as="geometry" />
        </mxCell>
        <mxCell id="7a8b956e7d50b54d-311" value="" style="align=left;strokeColor=#000000;html=1;" parent="1" vertex="1">
          <mxGeometry x="1240" y="599" width="120" height="20" as="geometry" />
        </mxCell>
        <mxCell id="7a8b956e7d50b54d-312" value="" style="align=left;strokeColor=#000000;html=1;" parent="1" vertex="1">
          <mxGeometry x="1240" y="619" width="120" height="20" as="geometry" />
        </mxCell>
        <mxCell id="7a8b956e7d50b54d-313" value="" style="align=left;strokeColor=#000000;html=1;" parent="1" vertex="1">
          <mxGeometry x="1240" y="639" width="120" height="20" as="geometry" />
        </mxCell>
        <mxCell id="7a8b956e7d50b54d-321" value="" style="align=left;strokeColor=#000000;html=1;" parent="1" vertex="1">
          <mxGeometry x="1360" y="479" width="120" height="20" as="geometry" />
        </mxCell>
        <mxCell id="7a8b956e7d50b54d-322" value="" style="align=left;strokeColor=#000000;html=1;" parent="1" vertex="1">
          <mxGeometry x="1360" y="499" width="120" height="20" as="geometry" />
        </mxCell>
        <mxCell id="7a8b956e7d50b54d-323" value="" style="align=left;strokeColor=#000000;html=1;" parent="1" vertex="1">
          <mxGeometry x="1360" y="519" width="120" height="20" as="geometry" />
        </mxCell>
        <mxCell id="7a8b956e7d50b54d-324" value="" style="align=left;strokeColor=#000000;html=1;" parent="1" vertex="1">
          <mxGeometry x="1360" y="539" width="120" height="20" as="geometry" />
        </mxCell>
        <mxCell id="7a8b956e7d50b54d-325" value="" style="align=left;strokeColor=#000000;html=1;" parent="1" vertex="1">
          <mxGeometry x="1360" y="559" width="120" height="20" as="geometry" />
        </mxCell>
        <mxCell id="7a8b956e7d50b54d-326" value="" style="align=left;strokeColor=#000000;html=1;" parent="1" vertex="1">
          <mxGeometry x="1360" y="579" width="120" height="20" as="geometry" />
        </mxCell>
        <mxCell id="7a8b956e7d50b54d-327" value="" style="align=left;strokeColor=#000000;html=1;" parent="1" vertex="1">
          <mxGeometry x="1360" y="599" width="120" height="20" as="geometry" />
        </mxCell>
        <mxCell id="7a8b956e7d50b54d-328" value="" style="align=left;strokeColor=#000000;html=1;" parent="1" vertex="1">
          <mxGeometry x="1360" y="619" width="120" height="20" as="geometry" />
        </mxCell>
        <mxCell id="7a8b956e7d50b54d-329" value="" style="align=left;strokeColor=#000000;html=1;" parent="1" vertex="1">
          <mxGeometry x="1360" y="639" width="120" height="20" as="geometry" />
        </mxCell>
        <mxCell id="7a8b956e7d50b54d-337" value="" style="align=left;strokeColor=#000000;html=1;" parent="1" vertex="1">
          <mxGeometry x="1480" y="479" width="120" height="20" as="geometry" />
        </mxCell>
        <mxCell id="7a8b956e7d50b54d-338" value="" style="align=left;strokeColor=#000000;html=1;" parent="1" vertex="1">
          <mxGeometry x="1480" y="499" width="120" height="20" as="geometry" />
        </mxCell>
        <mxCell id="7a8b956e7d50b54d-339" value="" style="align=left;strokeColor=#000000;html=1;" parent="1" vertex="1">
          <mxGeometry x="1480" y="519" width="120" height="20" as="geometry" />
        </mxCell>
        <mxCell id="7a8b956e7d50b54d-340" value="" style="align=left;strokeColor=#000000;html=1;" parent="1" vertex="1">
          <mxGeometry x="1480" y="539" width="120" height="20" as="geometry" />
        </mxCell>
        <mxCell id="7a8b956e7d50b54d-341" value="" style="align=left;strokeColor=#000000;html=1;" parent="1" vertex="1">
          <mxGeometry x="1480" y="559" width="120" height="20" as="geometry" />
        </mxCell>
        <mxCell id="7a8b956e7d50b54d-342" value="" style="align=left;strokeColor=#000000;html=1;" parent="1" vertex="1">
          <mxGeometry x="1480" y="579" width="120" height="20" as="geometry" />
        </mxCell>
        <mxCell id="7a8b956e7d50b54d-343" value="" style="align=left;strokeColor=#000000;html=1;" parent="1" vertex="1">
          <mxGeometry x="1480" y="599" width="120" height="20" as="geometry" />
        </mxCell>
        <mxCell id="7a8b956e7d50b54d-344" value="" style="align=left;strokeColor=#000000;html=1;" parent="1" vertex="1">
          <mxGeometry x="1480" y="619" width="120" height="20" as="geometry" />
        </mxCell>
        <mxCell id="7a8b956e7d50b54d-345" value="" style="align=left;strokeColor=#000000;html=1;" parent="1" vertex="1">
          <mxGeometry x="1480" y="639" width="120" height="20" as="geometry" />
        </mxCell>
        <mxCell id="7a8b956e7d50b54d-120" value="W1" style="strokeWidth=1;fontStyle=0;html=1;strokeColor=#000000;" parent="1" vertex="1">
          <mxGeometry x="880" y="459" width="30" height="20" as="geometry" />
        </mxCell>
        <mxCell id="7a8b956e7d50b54d-121" value="W2" style="strokeWidth=1;fontStyle=0;html=1;strokeColor=#000000;" parent="1" vertex="1">
          <mxGeometry x="910" y="459" width="30" height="20" as="geometry" />
        </mxCell>
        <mxCell id="7a8b956e7d50b54d-122" value="W3" style="strokeWidth=1;fontStyle=0;html=1;strokeColor=#000000;" parent="1" vertex="1">
          <mxGeometry x="940" y="459" width="30" height="20" as="geometry" />
        </mxCell>
        <mxCell id="7a8b956e7d50b54d-123" value="W4" style="strokeWidth=1;fontStyle=0;html=1;strokeColor=#000000;" parent="1" vertex="1">
          <mxGeometry x="970" y="459" width="30" height="20" as="geometry" />
        </mxCell>
        <mxCell id="7a8b956e7d50b54d-125" value="W1" style="strokeWidth=1;fontStyle=0;html=1;strokeColor=#000000;" parent="1" vertex="1">
          <mxGeometry x="1000" y="459" width="30" height="20" as="geometry" />
        </mxCell>
        <mxCell id="7a8b956e7d50b54d-126" value="W2" style="strokeWidth=1;fontStyle=0;html=1;strokeColor=#000000;" parent="1" vertex="1">
          <mxGeometry x="1030" y="459" width="30" height="20" as="geometry" />
        </mxCell>
        <mxCell id="7a8b956e7d50b54d-127" value="W3" style="strokeWidth=1;fontStyle=0;html=1;strokeColor=#000000;" parent="1" vertex="1">
          <mxGeometry x="1060" y="459" width="30" height="20" as="geometry" />
        </mxCell>
        <mxCell id="7a8b956e7d50b54d-128" value="W4" style="strokeWidth=1;fontStyle=0;html=1;strokeColor=#000000;" parent="1" vertex="1">
          <mxGeometry x="1090" y="459" width="30" height="20" as="geometry" />
        </mxCell>
        <mxCell id="7a8b956e7d50b54d-130" value="W1" style="strokeWidth=1;fontStyle=0;html=1;strokeColor=#000000;" parent="1" vertex="1">
          <mxGeometry x="1120" y="459" width="30" height="20" as="geometry" />
        </mxCell>
        <mxCell id="7a8b956e7d50b54d-131" value="W2" style="strokeWidth=1;fontStyle=0;html=1;strokeColor=#000000;" parent="1" vertex="1">
          <mxGeometry x="1150" y="459" width="30" height="20" as="geometry" />
        </mxCell>
        <mxCell id="7a8b956e7d50b54d-132" value="W3" style="strokeWidth=1;fontStyle=0;html=1;strokeColor=#000000;" parent="1" vertex="1">
          <mxGeometry x="1180" y="459" width="30" height="20" as="geometry" />
        </mxCell>
        <mxCell id="7a8b956e7d50b54d-133" value="W4" style="strokeWidth=1;fontStyle=0;html=1;strokeColor=#000000;" parent="1" vertex="1">
          <mxGeometry x="1210" y="459" width="30" height="20" as="geometry" />
        </mxCell>
        <mxCell id="7a8b956e7d50b54d-135" value="W1" style="strokeWidth=1;fontStyle=0;html=1;strokeColor=#000000;" parent="1" vertex="1">
          <mxGeometry x="1240" y="459" width="30" height="20" as="geometry" />
        </mxCell>
        <mxCell id="7a8b956e7d50b54d-136" value="W2" style="strokeWidth=1;fontStyle=0;html=1;strokeColor=#000000;" parent="1" vertex="1">
          <mxGeometry x="1270" y="459" width="30" height="20" as="geometry" />
        </mxCell>
        <mxCell id="7a8b956e7d50b54d-137" value="W3" style="strokeWidth=1;fontStyle=0;html=1;strokeColor=#000000;" parent="1" vertex="1">
          <mxGeometry x="1300" y="459" width="30" height="20" as="geometry" />
        </mxCell>
        <mxCell id="7a8b956e7d50b54d-138" value="W4" style="strokeWidth=1;fontStyle=0;html=1;strokeColor=#000000;" parent="1" vertex="1">
          <mxGeometry x="1330" y="459" width="30" height="20" as="geometry" />
        </mxCell>
        <mxCell id="7a8b956e7d50b54d-140" value="W1" style="strokeWidth=1;fontStyle=0;html=1;strokeColor=#000000;" parent="1" vertex="1">
          <mxGeometry x="1360" y="459" width="30" height="20" as="geometry" />
        </mxCell>
        <mxCell id="7a8b956e7d50b54d-141" value="W2" style="strokeWidth=1;fontStyle=0;html=1;strokeColor=#000000;" parent="1" vertex="1">
          <mxGeometry x="1390" y="459" width="30" height="20" as="geometry" />
        </mxCell>
        <mxCell id="7a8b956e7d50b54d-142" value="W3" style="strokeWidth=1;fontStyle=0;html=1;strokeColor=#000000;" parent="1" vertex="1">
          <mxGeometry x="1420" y="459" width="30" height="20" as="geometry" />
        </mxCell>
        <mxCell id="7a8b956e7d50b54d-143" value="W4" style="strokeWidth=1;fontStyle=0;html=1;strokeColor=#000000;" parent="1" vertex="1">
          <mxGeometry x="1450" y="459" width="30" height="20" as="geometry" />
        </mxCell>
        <mxCell id="7a8b956e7d50b54d-158" value="W1" style="strokeWidth=1;fontStyle=0;html=1;strokeColor=#000000;" parent="1" vertex="1">
          <mxGeometry x="1480" y="459" width="30" height="20" as="geometry" />
        </mxCell>
        <mxCell id="7a8b956e7d50b54d-159" value="W2" style="strokeWidth=1;fontStyle=0;html=1;strokeColor=#000000;" parent="1" vertex="1">
          <mxGeometry x="1510" y="459" width="30" height="20" as="geometry" />
        </mxCell>
        <mxCell id="7a8b956e7d50b54d-160" value="W3" style="strokeWidth=1;fontStyle=0;html=1;strokeColor=#000000;" parent="1" vertex="1">
          <mxGeometry x="1540" y="459" width="30" height="20" as="geometry" />
        </mxCell>
        <mxCell id="7a8b956e7d50b54d-161" value="W4" style="strokeWidth=1;fontStyle=0;html=1;strokeColor=#000000;" parent="1" vertex="1">
          <mxGeometry x="1570" y="459" width="30" height="20" as="geometry" />
        </mxCell>
        <mxCell id="7a8b956e7d50b54d-361" value="" style="align=left;strokeColor=#000000;html=1;fillColor=#dae8fc;" parent="1" vertex="1">
          <mxGeometry x="925" y="579" width="195" height="20" as="geometry" />
        </mxCell>
        <mxCell id="7a8b956e7d50b54d-362" value="" style="align=left;strokeColor=#000000;html=1;fillColor=#dae8fc;" parent="1" vertex="1">
          <mxGeometry x="925" y="559" width="135" height="20" as="geometry" />
        </mxCell>
        <mxCell id="7a8b956e7d50b54d-363" value="" style="align=left;strokeColor=#000000;html=1;fillColor=#dae8fc;" parent="1" vertex="1">
          <mxGeometry x="1060" y="599" width="390" height="20" as="geometry" />
        </mxCell>
        <mxCell id="7a8b956e7d50b54d-364" value="" style="align=left;strokeColor=#000000;html=1;fillColor=#dae8fc;" parent="1" vertex="1">
          <mxGeometry x="1120" y="619" width="390" height="20" as="geometry" />
        </mxCell>
        <mxCell id="7a8b956e7d50b54d-365" value="" style="align=left;strokeColor=#000000;html=1;fillColor=#dae8fc;" parent="1" vertex="1">
          <mxGeometry x="1480" y="639" width="120" height="20" as="geometry" />
        </mxCell>
        <mxCell id="7a8b956e7d50b54d-368" value="" style="align=left;strokeColor=#000000;html=1;fillColor=#dae8fc;" parent="1" vertex="1">
          <mxGeometry x="880" y="539" width="120" height="20" as="geometry" />
        </mxCell>
        <mxCell id="lz7V06lS7yi--iO5DTsi-1" value="&lt;b&gt;2022&lt;/b&gt;" style="strokeWidth=1;fontStyle=0;html=1;strokeColor=#000000;" vertex="1" parent="1">
          <mxGeometry x="760" y="419" width="840" height="20" as="geometry" />
        </mxCell>
        <mxCell id="lz7V06lS7yi--iO5DTsi-25" value="Januari" style="strokeWidth=1;fontStyle=1;html=1;strokeColor=#000000;" vertex="1" parent="1">
          <mxGeometry x="1600" y="439" width="120" height="20" as="geometry" />
        </mxCell>
        <mxCell id="lz7V06lS7yi--iO5DTsi-26" value="" style="align=left;strokeColor=#000000;html=1;" vertex="1" parent="1">
          <mxGeometry x="1600" y="479" width="120" height="20" as="geometry" />
        </mxCell>
        <mxCell id="lz7V06lS7yi--iO5DTsi-27" value="" style="align=left;strokeColor=#000000;html=1;" vertex="1" parent="1">
          <mxGeometry x="1600" y="499" width="120" height="20" as="geometry" />
        </mxCell>
        <mxCell id="lz7V06lS7yi--iO5DTsi-28" value="" style="align=left;strokeColor=#000000;html=1;" vertex="1" parent="1">
          <mxGeometry x="1600" y="519" width="120" height="20" as="geometry" />
        </mxCell>
        <mxCell id="lz7V06lS7yi--iO5DTsi-29" value="" style="align=left;strokeColor=#000000;html=1;" vertex="1" parent="1">
          <mxGeometry x="1600" y="539" width="120" height="20" as="geometry" />
        </mxCell>
        <mxCell id="lz7V06lS7yi--iO5DTsi-30" value="" style="align=left;strokeColor=#000000;html=1;" vertex="1" parent="1">
          <mxGeometry x="1600" y="559" width="120" height="20" as="geometry" />
        </mxCell>
        <mxCell id="lz7V06lS7yi--iO5DTsi-31" value="" style="align=left;strokeColor=#000000;html=1;" vertex="1" parent="1">
          <mxGeometry x="1600" y="579" width="120" height="20" as="geometry" />
        </mxCell>
        <mxCell id="lz7V06lS7yi--iO5DTsi-32" value="" style="align=left;strokeColor=#000000;html=1;" vertex="1" parent="1">
          <mxGeometry x="1600" y="599" width="120" height="20" as="geometry" />
        </mxCell>
        <mxCell id="lz7V06lS7yi--iO5DTsi-33" value="" style="align=left;strokeColor=#000000;html=1;" vertex="1" parent="1">
          <mxGeometry x="1600" y="619" width="120" height="20" as="geometry" />
        </mxCell>
        <mxCell id="lz7V06lS7yi--iO5DTsi-34" value="" style="align=left;strokeColor=#000000;html=1;" vertex="1" parent="1">
          <mxGeometry x="1600" y="639" width="120" height="20" as="geometry" />
        </mxCell>
        <mxCell id="lz7V06lS7yi--iO5DTsi-42" value="W1" style="strokeWidth=1;fontStyle=0;html=1;strokeColor=#000000;" vertex="1" parent="1">
          <mxGeometry x="1600" y="459" width="30" height="20" as="geometry" />
        </mxCell>
        <mxCell id="lz7V06lS7yi--iO5DTsi-43" value="W2" style="strokeWidth=1;fontStyle=0;html=1;strokeColor=#000000;" vertex="1" parent="1">
          <mxGeometry x="1630" y="459" width="30" height="20" as="geometry" />
        </mxCell>
        <mxCell id="lz7V06lS7yi--iO5DTsi-44" value="W3" style="strokeWidth=1;fontStyle=0;html=1;strokeColor=#000000;" vertex="1" parent="1">
          <mxGeometry x="1660" y="459" width="30" height="20" as="geometry" />
        </mxCell>
        <mxCell id="lz7V06lS7yi--iO5DTsi-45" value="W4" style="strokeWidth=1;fontStyle=0;html=1;strokeColor=#000000;" vertex="1" parent="1">
          <mxGeometry x="1690" y="459" width="30" height="20" as="geometry" />
        </mxCell>
        <mxCell id="lz7V06lS7yi--iO5DTsi-46" value="" style="align=left;strokeColor=#000000;html=1;fillColor=#dae8fc;" vertex="1" parent="1">
          <mxGeometry x="1540" y="479" width="90" height="20" as="geometry" />
        </mxCell>
        <mxCell id="lz7V06lS7yi--iO5DTsi-48" value="2023" style="strokeWidth=1;fontStyle=1;html=1;strokeColor=#000000;" vertex="1" parent="1">
          <mxGeometry x="1600" y="419" width="120" height="20" as="geometry" />
        </mxCell>
        <mxCell id="lz7V06lS7yi--iO5DTsi-49" value="" style="align=left;strokeColor=#000000;html=1;fillColor=#dae8fc;" vertex="1" parent="1">
          <mxGeometry x="1540" y="499" width="90" height="20" as="geometry" />
        </mxCell>
        <mxCell id="lz7V06lS7yi--iO5DTsi-50" value="" style="align=left;strokeColor=#000000;html=1;fillColor=#dae8fc;" vertex="1" parent="1">
          <mxGeometry x="1540" y="519" width="90" height="20" as="geometry" />
        </mxCell>
      </root>
    </mxGraphModel>
  </diagram>
</mxfile>
